<svg id="Capa_1" enable-background="new 0 0 512 512" height="512" viewBox="0 0 512 512" width="512" xmlns="http://www.w3.org/2000/svg"><g><path d="m504.209 376.865h-496.418l-7.791 1v86.584c0 5.69 4.612 10.302 10.302 10.302h491.396c5.69 0 10.302-4.612 10.302-10.302v-86.584z" fill="#8379c1"/><g><path d="m58.205 464.449v-86.585h-58.205v86.585c0 5.69 4.612 10.302 10.302 10.302h58.205c-5.689 0-10.302-4.612-10.302-10.302z" fill="#6e61b6"/></g><g><path d="m512 377.865h-512v-330.315c0-5.69 4.612-10.302 10.302-10.302h491.396c5.69 0 10.302 4.612 10.302 10.302z" fill="#6354b1"/></g><path d="m40.635 342.381c-2.845 0-5.151-2.306-5.151-5.151v-259.346c0-2.845 2.306-5.151 5.151-5.151h17.57v-25.182c0-5.69 4.612-10.302 10.302-10.302h-58.205c-5.69 0-10.302 4.612-10.302 10.302v330.314h58.205v-35.484z" fill="#54469c"/><g><g><path d="m35.484 337.23v-259.346c0-2.845 2.306-5.151 5.151-5.151h430.73c2.845 0 5.151 2.306 5.151 5.151v259.346c0 2.845-2.306 5.151-5.151 5.151h-430.73c-2.845 0-5.151-2.306-5.151-5.151z" fill="#fed402"/></g><g><path d="m87.05 337.23v-259.346c0-2.845 2.306-5.151 5.151-5.151h-51.566c-2.845 0-5.151 2.306-5.151 5.151v259.346c0 2.845 2.306 5.151 5.151 5.151h51.566c-2.845 0-5.151-2.306-5.151-5.151z" fill="#fac600"/></g><g><path d="m471.365 349.881h-430.73c-6.976 0-12.651-5.675-12.651-12.651v-259.346c0-6.976 5.675-12.651 12.651-12.651h430.73c6.976 0 12.651 5.675 12.651 12.651v259.346c0 6.976-5.675 12.651-12.651 12.651zm-428.381-15h426.032v-254.648h-426.032z" fill="#8379c1"/></g><g><g><circle cx="256" cy="210.145" fill="#fd4755" r="81.585"/></g><g><path d="m217.883 210.145c0-37.529 25.348-69.118 59.851-78.634-6.922-1.909-14.205-2.95-21.734-2.95-45.058 0-81.585 36.527-81.585 81.585s36.527 81.585 81.585 81.585c7.529 0 14.812-1.041 21.734-2.95-34.503-9.519-59.851-41.108-59.851-78.636z" fill="#fb2b3a"/></g><g><path d="m292.475 207.38-61.124-30.562c-2.055-1.027-4.473.467-4.473 2.764v61.123c0 2.297 2.418 3.792 4.473 2.764l61.124-30.562c2.278-1.137 2.278-4.388 0-5.527z" fill="#fff"/></g><path d="m243.695 182.991-12.344-6.172c-2.055-1.027-4.473.467-4.473 2.764v61.123c0 2.297 2.418 3.792 4.473 2.764l12.344-6.172z" fill="#eaf6ff"/></g><g><g><path d="m409.996 207.269-30.713-21.96c-2.045-1.462-4.888 0-4.888 2.514v44.543c0 2.533 2.88 3.991 4.921 2.49l30.713-22.583c1.694-1.245 1.677-3.781-.033-5.004z" fill="#fd4755"/></g><g><path d="m102.004 207.269 30.713-21.96c2.045-1.462 4.888 0 4.888 2.514v44.543c0 2.533-2.88 3.991-4.921 2.49l-30.713-22.583c-1.694-1.245-1.677-3.781.033-5.004z" fill="#fd4755"/></g></g></g><g><g><g><path d="m190.87 426.308c0-4.831 1.603-9.277 4.279-12.877h-91.532c-6.063 0-10.977 5.765-10.977 12.877 0 7.112 4.915 12.877 10.977 12.877h91.532c-2.676-3.6-4.279-8.046-4.279-12.877z" fill="#fd4755"/></g><g><path d="m458.488 413.431h-228.63c2.676 3.601 4.279 8.046 4.279 12.877s-1.603 9.277-4.279 12.877h228.63c7.112 0 12.877-5.765 12.877-12.877 0-7.112-5.765-12.877-12.877-12.877z" fill="#54469c"/></g></g><g><circle cx="212.503" cy="426.308" fill="#fff" r="21.634"/></g><path d="m207.732 426.308c0-8.957 5.444-16.642 13.202-19.929-2.591-1.098-5.44-1.705-8.431-1.705-11.948 0-21.634 9.686-21.634 21.634s9.686 21.634 21.634 21.634c2.991 0 5.84-.608 8.431-1.705-7.758-3.287-13.202-10.972-13.202-19.929z" fill="#eaf6ff"/></g><g><g><g><path d="m40.635 444.11c-4.142 0-7.5-3.358-7.5-7.5v-20.604c0-4.142 3.358-7.5 7.5-7.5s7.5 3.358 7.5 7.5v20.604c0 4.142-3.358 7.5-7.5 7.5z" fill="#fff"/></g><g><path d="m62.078 444.11c-4.142 0-7.5-3.358-7.5-7.5v-20.604c0-4.142 3.358-7.5 7.5-7.5s7.5 3.358 7.5 7.5v20.604c0 4.142-3.358 7.5-7.5 7.5z" fill="#fff"/></g></g></g><g><g><circle cx="397.314" cy="104.048" fill="#fff" r="7.5"/></g><g><circle cx="420.314" cy="104.048" fill="#fff" r="7.5"/></g><g><circle cx="443.314" cy="104.048" fill="#fff" r="7.5"/></g></g><g><path d="m97.352 316.781h-33.996c-1.707 0-3.091-1.384-3.091-3.091v-33.996c0-1.707 1.384-3.091 3.091-3.091h33.996c1.707 0 3.091 1.384 3.091 3.091v33.996c0 1.707-1.384 3.091-3.091 3.091z" fill="#fd4755"/></g></g></svg>