<?xml version="1.0" encoding="iso-8859-1"?>
<!-- Generator: Adobe Illustrator 19.0.0, SVG Export Plug-In . SVG Version: 6.00 Build 0)  -->
<svg version="1.1" id="Capa_1" xmlns="http://www.w3.org/2000/svg" xmlns:xlink="http://www.w3.org/1999/xlink" x="0px" y="0px"
	 viewBox="0 0 512 512" style="enable-background:new 0 0 512 512;" xml:space="preserve">
<path style="fill:#713708;" d="M278.032,404.637l-21.847,21.847c-6.038,6.038-15.81,6.038-21.847,0
	c-6.038-6.038-6.038-15.81,0-21.847l21.847-21.847c6.027-6.027,6.027-15.82,0-21.847l-20.087-20.087
	c-6.038-6.038-6.038-15.81,0-21.847c6.038-6.038,15.81-6.038,21.847,0l20.087,20.087
	C296.104,357.166,296.104,386.565,278.032,404.637z"/>
<path style="fill:#994C0F;" d="M310.803,502.95L310.803,502.95c-12.066,12.066-31.629,12.066-43.694,0L157.872,393.713
	l43.694-43.695l109.237,109.237C322.87,471.321,322.87,490.884,310.803,502.95z"/>
<path style="fill:#FE318F;" d="M156.997,261.753l67.728,67.728l-1.311,42.384l-76.466,76.466
	c-18.133,18.133-47.846,17.697-65.979-0.438l-43.695-43.695c-17.915-17.915-17.697-46.972,0.438-65.105l76.466-76.466
	L156.997,261.753z"/>
<path style="fill:#FD0F7F;" d="M190.643,295.4l34.082,34.082l-1.311,42.384l-76.466,76.466
	c-18.133,18.133-47.846,17.697-65.979-0.438l-21.411-21.411L190.643,295.4z"/>
<g>
	<path style="fill:#1BD9DE;" d="M348.994,61.798c-8.523,0.01-15.446-6.913-15.446-15.446l-0.01-30.904
		C333.536,6.913,340.449,0,348.984,0c8.523-0.01,15.446,6.913,15.446,15.446l0.01,30.904
		C364.441,54.885,357.529,61.798,348.994,61.798z"/>
	<path style="fill:#1BD9DE;" d="M472.58,154.49l-30.904-0.01c-8.534,0-15.458-6.923-15.446-15.446
		c0-8.534,6.913-15.446,15.446-15.446l30.904,0.01c8.534,0,15.458,6.923,15.446,15.446
		C488.026,147.577,481.114,154.49,472.58,154.49z"/>
	<path style="fill:#1BD9DE;" d="M452.812,33.23c6.117,6.117,6.118,15.73,0,21.847l-32.771,32.771
		c-6.118,6.118-15.731,6.117-21.847,0c-6.118-6.118-6.118-15.73,0-21.847l32.771-32.771
		C437.082,27.112,446.694,27.112,452.812,33.23z"/>
</g>
<path style="fill:#CAE8F9;" d="M267.109,66.001l152.932,152.932c4.37,4.37,9.831,50.467,15.511,51.342l-43.038,8.958
	c-63.795,12.671-124.312,47.846-165.385,88.919l-3.714,3.714L114.176,262.628l3.714-3.714
	c43.259-43.259,75.155-100.5,88.263-166.041l8.957-44.787L267.109,66.001z"/>
<path style="fill:#E1E4FB;" d="M146.947,339.094c6.117,6.117,6.118,15.73,0,21.847L125.1,382.789
	c-6.118,6.118-15.731,6.117-21.847,0c-6.118-6.118-6.118-15.73,0-21.847l21.847-21.847
	C131.218,332.977,140.83,332.977,146.947,339.094z"/>
<path style="fill:#B7E0F6;" d="M343.575,142.467l76.466,76.466c4.37,4.37,9.831,50.467,15.511,51.342l-43.038,8.958
	c-63.795,12.671-124.312,47.846-165.385,88.919l-3.714,3.714l-54.619-54.619L343.575,142.467z"/>
<path style="fill:#C5C9F7;" d="M146.947,339.094c6.117,6.117,6.118,15.73,0,21.847L125.1,382.789
	c-6.118,6.118-15.731,6.117-21.847,0L146.947,339.094z"/>
<path style="fill:#FE318F;" d="M267.109,22.307l196.627,196.627c12.016,12.016,12.016,31.679,0,43.695
	c-1.311,1.311-3.059,2.184-4.808,3.058c-6.991,4.808-15.292,6.555-23.377,4.588c-5.679-0.873-11.141-3.276-15.511-7.646
	L223.413,66.001c-5.026-5.026-7.428-11.361-8.303-17.915c-0.873-6.554,0.439-13.11,3.715-19.007
	c1.529-2.404,2.621-4.806,4.588-6.773C235.429,10.291,255.093,10.291,267.109,22.307z"/>
<path style="fill:#FD0F7F;" d="M365.422,120.62l98.313,98.313c12.016,12.016,12.016,31.679,0,43.695
	c-1.311,1.311-3.059,2.184-4.808,3.058c-6.991,4.808-15.292,6.555-23.377,4.588c-5.679-0.873-11.141-3.276-15.511-7.646
	l-98.313-98.313L365.422,120.62z"/>
<g>
</g>
<g>
</g>
<g>
</g>
<g>
</g>
<g>
</g>
<g>
</g>
<g>
</g>
<g>
</g>
<g>
</g>
<g>
</g>
<g>
</g>
<g>
</g>
<g>
</g>
<g>
</g>
<g>
</g>
</svg>
